<svg width="148" height="34" viewBox="0 0 148 34" fill="none" xmlns="http://www.w3.org/2000/svg">
<path d="M12.768 10.3888C8.87517 6.60116 11.5566 0 16.988 0C22.4194 0 25.1008 6.60116 21.208 10.3888L16.988 14.4947L12.768 10.3888Z" fill="#CBEA7B"/>
<path d="M12.7925 23.6112C8.89966 27.3988 11.5811 34 17.0125 34C22.4439 34 25.1253 27.3988 21.2325 23.6112L17.0125 19.5053L12.7925 23.6112Z" fill="#CBEA7B"/>
<path d="M10.3888 21.2321C6.60116 25.1249 0 22.4434 0 17.012C0 11.5807 6.60116 8.89919 10.3888 12.792L14.4947 17.012L10.3888 21.2321Z" fill="#CBEA7B"/>
<path d="M23.6112 21.2075C27.3988 25.1003 34 22.4189 34 16.9875C34 11.5561 27.3988 8.87465 23.6112 12.7674L19.5053 16.9875L23.6112 21.2075Z" fill="#CBEA7B"/>
<path d="M49.1101 19.601V11.05H51.6941V22.95H47.9711L42.7521 14.416H42.4631V22.95H39.8791V11.05H43.3641V11.067H43.6021L48.8041 19.601H49.1101Z" fill="white"/>
<path d="M61.0951 13.413H63.6791V22.95H61.0951V21.556H60.9761C60.3641 22.406 59.4971 22.95 57.7801 22.95C53.7511 22.95 53.6491 19.584 53.6491 18.19V13.413H56.2161V18.19C56.2161 18.938 56.0461 20.74 58.5281 20.74C60.7551 20.74 61.0951 19.312 61.0951 18.02V13.413Z" fill="white"/>
<path d="M69.1531 15.623V19.006V19.21C69.1531 20.587 69.7651 20.4 72.2471 20.264V22.78C72.2471 22.78 71.7371 22.95 69.1531 22.95C66.5521 22.95 66.5521 20.825 66.5521 19.448V15.623H65.2941V13.447H66.5521V10.693H69.1531V13.447H72.2471V15.623H69.1531Z" fill="white"/>
<path d="M79.5252 13.413C80.2052 13.413 80.7662 13.566 81.2082 13.668L80.8002 16.099C80.5622 16.031 79.8992 15.895 79.0832 15.895C77.1622 15.895 76.6012 17.391 76.6012 18.683V22.95H74.0172V13.413H76.6012V14.824H76.7542C77.2982 13.906 77.8762 13.413 79.5252 13.413Z" fill="white"/>
<path d="M85.1579 22.95H82.5909V13.481H85.1579V22.95ZM85.1579 12.801H82.5909V10.489H85.1579V12.801Z" fill="white"/>
<path d="M90.7902 15.623V19.006V19.21C90.7902 20.587 91.4022 20.4 93.8842 20.264V22.78C93.8842 22.78 93.3742 22.95 90.7902 22.95C88.1892 22.95 88.1892 20.825 88.1892 19.448V15.623H86.9312V13.447H88.1892V10.693H90.7902V13.447H93.8842V15.623H90.7902Z" fill="white"/>
<path d="M98.1715 22.95H95.6045V13.481H98.1715V22.95ZM98.1715 12.801H95.6045V10.489H98.1715V12.801Z" fill="white"/>
<path d="M105.249 13.243C108.156 13.243 110.57 14.79 110.57 18.105C110.57 21.454 108.156 22.95 105.249 22.95C102.359 22.95 99.9449 21.403 99.9449 18.105C99.9449 14.824 102.359 13.243 105.249 13.243ZM105.249 20.604C106.881 20.604 108.037 19.822 108.037 18.105C108.037 16.337 106.881 15.606 105.249 15.606C103.634 15.606 102.478 16.303 102.478 18.105C102.478 19.89 103.634 20.604 105.249 20.604Z" fill="white"/>
<path d="M118.203 13.413C122.232 13.413 122.334 16.796 122.334 18.19V22.95H119.767V18.19C119.767 17.442 119.92 15.64 117.455 15.64C115.211 15.64 114.888 17.068 114.888 18.36V22.95H112.304V13.413H114.888V14.824H115.007C115.619 13.974 116.486 13.413 118.203 13.413Z" fill="white"/>
<path d="M126.848 22.95H124.281V13.481H126.848V22.95ZM126.848 12.801H124.281V10.489H126.848V12.801Z" fill="white"/>
<path d="M133.521 17.17C135.68 17.493 138.128 17.867 138.128 20.128C138.128 22.491 136.428 22.95 133.504 22.95C131.345 22.95 129.866 22.559 129.101 21.794C128.438 21.131 128.438 20.332 128.455 19.839V19.652H131.107V19.737C131.107 20.553 131.719 20.927 133.436 20.927C134.473 20.927 135.459 20.791 135.459 20.162C135.459 19.448 134.541 19.312 133.504 19.193C133.368 19.176 133.232 19.159 133.096 19.142C130.359 18.785 128.659 18.173 128.659 16.269C128.659 14.943 129.424 13.362 133.096 13.362C137.04 13.362 137.873 15.113 137.873 16.575V16.66H135.238V16.575C135.238 15.827 134.592 15.419 133.096 15.419C131.651 15.419 131.345 15.946 131.345 16.235C131.345 16.66 131.634 16.898 133.3 17.153L133.521 17.17Z" fill="white"/>
<path d="M143.179 15.623V19.006V19.21C143.179 20.587 143.791 20.4 146.273 20.264V22.78C146.273 22.78 145.763 22.95 143.179 22.95C140.578 22.95 140.578 20.825 140.578 19.448V15.623H139.32V13.447H140.578V10.693H143.179V13.447H146.273V15.623H143.179Z" fill="white"/>
</svg>
