<svg width="40" height="40" viewBox="0 0 40 40" fill="none" xmlns="http://www.w3.org/2000/svg">
<g clip-path="url(#clip0_112_111)">
<path d="M37.2509 11.7807L24.2404 5.82702C22.8849 5.2157 21.7818 4.92332 20.6787 4.9499C19.589 4.92332 18.4859 5.2157 17.1172 5.82702L4.11993 11.7807C3.2694 12.1662 2.85742 12.8439 2.85742 13.5217C2.85742 14.1994 3.2694 14.864 4.11993 15.2627L9.59526 17.7611L18.0076 13.8141C17.9279 13.7211 17.9012 13.6147 17.9012 13.5217C17.9012 12.6844 19.3099 12.0465 20.7319 12.0465C22.1672 12.0465 23.5494 12.6844 23.5494 13.5217C23.5494 14.3855 22.1672 15.0367 20.7319 15.0367C20.2934 15.0367 19.8549 14.9702 19.4694 14.864L11.4425 18.6249L17.1172 21.2297C18.4859 21.8542 19.589 22.1201 20.6787 22.1068C21.7818 22.1201 22.8849 21.8542 24.2404 21.2297L37.2509 15.2627C38.1014 14.864 38.5134 14.1994 38.5134 13.5217C38.5134 12.8439 38.1014 12.1662 37.2509 11.7807ZM11.3894 20.5918V28.6719C13.622 30.0274 16.8115 30.8513 20.6787 30.8513C28.5197 30.8513 33.5697 27.4891 33.5697 23.5155V18.9438L24.9979 22.8643C23.443 23.582 22.0344 23.9408 20.6787 23.9275C19.3365 23.9408 17.9145 23.582 16.3596 22.8643L11.3894 20.5918ZM7.80116 18.9438V23.5155C7.80116 24.6717 8.46564 26.1069 9.6617 27.3296V19.8077L7.80116 18.9438ZM9.6617 31.755H11.3894V28.6719C10.7249 28.2732 10.1401 27.8214 9.6617 27.3296V31.755ZM8.61183 31.8481V35.3433C8.61183 36.3932 9.2896 37.0709 10.3395 37.0709H10.6983C11.7482 37.0709 12.4259 36.3932 12.4259 35.3433V31.8481C12.4259 30.7982 11.7482 30.1204 10.6983 30.1204H10.3395C9.2896 30.1204 8.61183 30.7982 8.61183 31.8481Z" fill="#262626"/>
</g>
<defs>
<clipPath id="clip0_112_111">
<rect width="40" height="40" fill="white"/>
</clipPath>
</defs>
</svg>
