<svg width="40" height="40" viewBox="0 0 40 40" fill="none" xmlns="http://www.w3.org/2000/svg">
<path d="M10.9036 37.3216H28.6826C32.1313 37.3216 33.8723 35.5637 33.8723 32.0816V6.68541C33.8723 3.18653 32.148 1.42871 28.6826 1.42871H24.4304C23.8612 1.42871 23.4762 1.8305 23.4762 2.43318C23.4762 2.51688 23.4762 2.60059 23.4762 2.66755C23.4762 4.84388 22.0029 6.1497 19.7931 6.1497C17.5833 6.1497 16.1101 4.84388 16.1101 2.66755C16.1101 2.60059 16.1101 2.51688 16.1101 2.43318C16.1101 1.8305 15.725 1.42871 15.1558 1.42871H10.9036C7.4382 1.42871 5.71387 3.18653 5.71387 6.68541V32.0816C5.71387 35.5637 7.45494 37.3216 10.9036 37.3216ZM13.4482 13.9008C12.8456 13.9008 12.4103 13.4488 12.4103 12.8461C12.4103 12.2769 12.8456 11.8249 13.4482 11.8249H26.1547C26.7407 11.8249 27.1759 12.2769 27.1759 12.8461C27.1759 13.4488 26.7407 13.9008 26.1547 13.9008H13.4482ZM13.4482 19.8439C12.8456 19.8439 12.4103 19.3919 12.4103 18.8227C12.4103 18.2367 12.8456 17.7847 13.4482 17.7847H19.4583C20.061 17.7847 20.4963 18.2367 20.4963 18.8227C20.4963 19.3919 20.061 19.8439 19.4583 19.8439H13.4482Z" fill="#262626"/>
</svg>
