<svg width="40" height="44" viewBox="0 0 40 44" fill="none" xmlns="http://www.w3.org/2000/svg">
<path d="M14.3701 41.9866H24.5989C30.4248 41.9866 33.3044 39.0401 33.2541 33.1473C33.1871 26.4174 33.1536 21.529 32.9862 17.8627C32.5008 7.08147 29.4706 3.91741 19.4929 3.91741C9.51523 3.91741 6.46835 7.08147 5.98286 17.8627C5.81545 21.529 5.78197 26.4174 5.715 33.1473C5.66478 39.0401 8.54424 41.9866 14.3701 41.9866ZM13.8846 35.3404C12.4449 35.3404 11.5242 34.4029 11.5242 32.9967V24.3583C11.5242 22.9353 12.4449 21.9977 13.8846 21.9977H25.1012C26.5242 21.9977 27.4449 22.9353 27.4449 24.3583V32.9967C27.4449 34.4029 26.5242 35.3404 25.1012 35.3404H13.8846ZM11.5242 28.4431H27.4449V26.4509H11.5242V28.4431ZM19.4929 0C16.2786 0 14.0186 2.17634 14.0186 5.13951H16.3791C16.3791 3.51563 17.6514 2.36049 19.4929 2.36049C21.3176 2.36049 22.6068 3.51563 22.6068 5.13951H24.9672C24.9672 2.17634 22.6905 0 19.4929 0Z" fill="#262626"/>
</svg>
