<svg width="127" height="111" viewBox="0 0 127 111" fill="none" xmlns="http://www.w3.org/2000/svg">
<path d="M61.5871 50.1104C42.81 31.8409 55.7442 0 81.9426 0C108.141 0 121.075 31.8409 102.298 50.1105L81.9426 69.9158L61.5871 50.1104Z" fill="#EEF8D3"/>
<path d="M61.7052 113.89C42.9282 132.159 55.8624 164 82.0607 164C108.259 164 121.193 132.159 102.416 113.89L82.0607 94.0842L61.7052 113.89Z" fill="#EEF8D3"/>
<path d="M50.1104 102.413C31.8409 121.19 0 108.256 0 82.0574C0 55.8591 31.8409 42.9249 50.1105 61.7019L69.9158 82.0574L50.1104 102.413Z" fill="#EEF8D3"/>
<path d="M113.89 102.295C132.159 121.072 164 108.138 164 81.9393C164 55.7409 132.159 42.8068 113.89 61.5838L94.0842 81.9393L113.89 102.295Z" fill="#EEF8D3"/>
</svg>
